<svg xmlns="http://www.w3.org/2000/svg" viewBox="0 0 64 64" fill="none">
  <defs>
    <linearGradient id="g" x1="0" y1="0" x2="64" y2="64" gradientUnits="userSpaceOnUse">
      <stop offset="0" stop-color="#6366F1"/>
      <stop offset="1" stop-color="#A78BFA"/>
    </linearGradient>
  </defs>
  <rect x="6" y="6" width="52" height="52" rx="14" fill="url(#g)"/>
  <g stroke="#fff" stroke-width="3" stroke-linecap="round" stroke-linejoin="round">
    <path d="M24 20c-3 0-5.5-2.3-5.5-5.1 0-2.8 2.5-5.1 5.5-5.1 1.7 0 3.1.7 4.1 1.8" opacity=".25"/>
    <path d="M40 19.5c3 0 5.5-2.2 5.5-5s-2.5-5-5.5-5c-1.5 0-2.9.6-3.9 1.6" opacity=".25"/>
    <path d="M26.5 22.5C20 22.8 15 27.5 15 34c0 6 4.8 10.8 10.8 10.8H32"/>
    <path d="M37.5 22.5C44 22.8 49 27.5 49 34c0 6-4.8 10.8-10.8 10.8H32"/>
    <path d="M25.5 30.5c1.4-1 3.1-1.6 5-1.6s3.6.6 5 1.6"/>
    <path d="M24.5 36.5c1.7-1.3 3.9-2 6.5-2s4.8.7 6.5 2"/>
  </g>
</svg>
